<svg width="24" height="24" viewBox="0 0 24 24" fill="none" xmlns="http://www.w3.org/2000/svg">
<path fill-rule="evenodd" clip-rule="evenodd" d="M12.5145 8.14251C12.0409 7.85836 11.4267 8.01192 11.1425 8.4855C10.8584 8.95908 11.012 9.57334 11.4855 9.85749L13.2799 10.9341C13.0989 11.4218 13 11.9493 13 12.5C13 14.9853 15.0147 17 17.5 17C19.9853 17 22 14.9853 22 12.5C22 10.0147 19.9853 8 17.5 8C16.2871 8 15.1863 8.47984 14.3771 9.26003L12.5145 8.14251ZM20 12.5C20 13.8807 18.8807 15 17.5 15C16.1193 15 15 13.8807 15 12.5C15 11.1193 16.1193 10 17.5 10C18.8807 10 20 11.1193 20 12.5Z" fill="#F94917"/>
<path fill-rule="evenodd" clip-rule="evenodd" d="M6.5 10C8.98528 10 11 7.98528 11 5.5C11 3.01472 8.98528 1 6.5 1C4.01472 1 2 3.01472 2 5.5C2 7.98528 4.01472 10 6.5 10ZM9 5.5C9 6.88071 7.88071 8 6.5 8C5.11929 8 4 6.88071 4 5.5C4 4.11929 5.11929 3 6.5 3C7.88071 3 9 4.11929 9 5.5Z" fill="#AAB8C4"/>
<path fill-rule="evenodd" clip-rule="evenodd" d="M6.5 23C8.98528 23 11 20.9853 11 18.5C11 18.0906 10.9453 17.694 10.8429 17.3171L14.1797 15.5375C13.7296 15.0457 13.3873 14.4536 13.1902 13.7985L9.90077 15.5529C9.07568 14.6016 7.8581 14 6.5 14C4.01472 14 2 16.0147 2 18.5C2 20.9853 4.01472 23 6.5 23ZM9 18.5C9 19.8807 7.88071 21 6.5 21C5.11929 21 4 19.8807 4 18.5C4 17.1193 5.11929 16 6.5 16C7.88071 16 9 17.1193 9 18.5Z" fill="#AAB8C4"/>
</svg>